<?xml version="1.0" encoding="UTF-8"?>
<svg id="Capa_1" data-name="Capa 1" xmlns="http://www.w3.org/2000/svg" viewBox="0 0 1513.64 1288.84">
  <defs>
    <style>
      .cls-1 {
        fill: #fff;
        stroke-width: 0px;
      }
    </style>
  </defs>
  <path class="cls-1" d="m131.77,733.51c.08,148.71.2,297.42.86,446.12.02,4.99-1.13,86.01-.22,94.92,1.08,10.53-2.79,15.19-13.88,14.14-8.15-.78-16.45-.15-24.68-.03-2.68.04-60.8.18-83.76-.29-7.83-.16-10.62-2.88-10.01-10.26.24-2.92.02-5.87.02-8.81,0-417.92,0-835.83,0-1253.75V0c165.53,165.62,337.31,337.49,502.07,502.33,0,0-.8-348.21-1.4-477.52-.07-15.58,3.24-20.59,19.93-20.54,202.24.6,404.49.12,606.73.41,90.98.13,171.57,29.89,242.66,86.67,72.21,57.67,116.28,133.01,134.85,222.05,23.55,112.88-1.01,217.13-69.64,309.7-60.22,81.21-141.46,131.06-240.71,149.82-46.84,8.85-94.7,7.29-142.28,7.07-9.67-.05-11.76-3.95-11.69-12.62.32-36.44.44-72.89-.08-109.32-.14-9.78,3.73-11.73,12.42-11.55,22.92.46,45.87-.31,68.78.23,117.98,2.77,219.51-78.5,248.09-182.41,23.85-86.71,9.11-166.62-49.99-236.48-8.47-10.02-46.6-43.61-49.81-45.8-45.24-30.89-95.2-44.72-150.16-44.18-92.29.9-184.62,1.16-276.89-.54-63.47-1.17-126.89,2.07-190.29-.21-15.11-.54-18.25,4.39-18.21,18.72.55,201.02.49,402.04.57,603.07,0,5.24,0,10.48,0,21.93-168.96-169.26-334.47-335.07-502.83-503.74,0,144.86-.46,451.44-.46,456.45Z"/>
  <path class="cls-1" d="m275.28,633.73c168.82,168.45,334.57,333.85,500.51,499.42,5.36-5.4,3.25-10.95,3.25-15.85.14-142.79.08-477.72.09-485.64.04-105.18.29-210.36-.29-315.54-.08-14.14,2.74-19.42,18.08-18.84,32.86,1.25,65.82.81,98.72.14,11.25-.23,15.3,2.66,14.96,14.54-.83,29.36-.27,58.75-.27,88.13,0,288.51-.22,577.02.46,865.52.04,18.44-5.27,22.93-22.54,22.24-29.92-1.2-59.96-.88-89.9.11-12.8.43-21.93-3.34-30.9-12.35-111.72-112.24-223.76-224.18-335.71-336.2-48.84-48.88-97.66-97.77-146.48-146.67-4.88-4.89-10.22-8.93-10.15-17.38.37-45.75.17-91.5.17-141.64Z"/>
</svg>